<?xml version="1.0" encoding="utf-8"?>
<!-- Generator: Adobe Illustrator 23.0.0, SVG Export Plug-In . SVG Version: 6.00 Build 0)  -->
<svg version="1.1" id="Layer_1" xmlns="http://www.w3.org/2000/svg" xmlns:xlink="http://www.w3.org/1999/xlink" x="0px" y="0px"
	 viewBox="0 0 30 30" style="enable-background:new 0 0 30 30;" xml:space="preserve">
<style type="text/css">
	.st0{fill:#1D1344;}
</style>
<g>
	<path class="st0" d="M27.7,5.2l-22,23c-0.3,0.3-0.7,0.3-1,0l-2.5-2.3c-0.3-0.3-0.3-0.7,0-1l22-23c0.3-0.3,0.7-0.3,1,0l2.5,2.3
		C28,4.4,28,4.9,27.7,5.2z"/>
	<path class="st0" d="M24.8,27.7l-23-22c-0.3-0.3-0.3-0.7,0-1l2.3-2.5c0.3-0.3,0.7-0.3,1,0l23,22c0.3,0.3,0.3,0.7,0,1l-2.3,2.5
		C25.6,28,25.1,28,24.8,27.7z"/>
</g>
</svg>
