<?xml version="1.0" encoding="utf-8"?>
<!-- Generator: Adobe Illustrator 23.0.0, SVG Export Plug-In . SVG Version: 6.00 Build 0)  -->
<svg version="1.1" id="Layer_1" xmlns="http://www.w3.org/2000/svg" xmlns:xlink="http://www.w3.org/1999/xlink" x="0px" y="0px"
	 viewBox="0 0 525.7 200" style="enable-background:new 0 0 525.7 200;" xml:space="preserve">
<style type="text/css">
	.st0{fill:#FFFFFF;}
</style>
<g>
	<path class="st0" d="M265.5,98.3h-11.6l-7-36.4l-13.6,37.3H229l-13.6-37.3L208,98.3h-11.6L210,30.6h6.3L231,76.2l14.3-45.6h6.3
		L265.5,98.3z"/>
	<path class="st0" d="M299.6,93.3c-1.1,1.8-2.8,3.1-5.5,4.2c-2.6,1.1-5.4,1.7-8.2,1.7c-5.4,0-9.5-1.4-12.6-4
		c-3-2.6-4.6-6.4-4.6-11.3c0-5.7,2.1-10.2,6.4-13.4c4.3-3.2,10.4-4.9,18.3-4.9c1.4,0,2.9,0.2,4.8,0.7c0-5.8-3.7-8.8-11-8.8
		c-4.4,0-8,0.7-10.9,2.1l-2.5-9c4-1.9,8.7-2.8,14.2-2.8c7.5,0,13,1.8,16.5,5.2s5.3,9.9,5.3,19.5v10.6c0,6.6,1.4,10.7,4,12.5
		c-1,1.7-2,2.7-3.2,3.1s-2.5,0.6-4,0.6c-1.7,0-3.1-0.6-4.5-1.8C301,96.1,300.1,94.8,299.6,93.3z M298.6,75c-1.9-0.4-3.4-0.6-4.5-0.6
		c-9.2,0-13.6,3-13.6,9c0,4.5,2.5,6.6,7.7,6.6c6.9,0,10.4-3.5,10.4-10.4V75z"/>
	<path class="st0" d="M354.3,98.3V69.7c0-4.2-0.8-7.3-2.4-9.2c-1.7-1.9-4.3-2.9-7.9-2.9c-1.7,0-3.5,0.5-5.5,1.5s-3.4,2.1-4.5,3.5
		v35.7h-11.6V48.8h8.3l2.1,4.6c3.1-3.7,7.8-5.5,13.9-5.5c5.8,0,10.5,1.8,13.9,5.3s5.1,8.5,5.1,14.7v30.3h-11.5v0.1H354.3z"/>
	<path class="st0" d="M374.6,111l7.3-9c4,3.7,8.6,5.5,13.4,5.5c3.3,0,6-0.5,8.2-1.5c2.1-1,3.2-2.3,3.2-4.1c0-2.9-2.3-4.4-7.1-4.4
		c-1.3,0-3.2,0.2-5.7,0.5s-4.5,0.5-5.7,0.5c-8,0-11.9-2.8-11.9-8.6c0-1.7,0.7-3.2,1.9-4.8c1.4-1.6,2.8-2.7,4.6-3.5
		c-5.6-3.7-8.5-8.9-8.5-15.6c0-5.3,1.9-9.6,5.8-13.1s8.7-5.2,14.3-5.2c4.5,0,8.2,0.9,11.1,2.5l4.5-5.3l8,7.2l-5.5,4
		c1.9,2.9,2.8,6.3,2.8,10.2c0,5.6-1.8,10.1-5.2,13.5s-7.8,5.1-12.9,5.1c-0.9,0-1.9-0.1-3.3-0.2l-1.8-0.3c-0.2,0-1.1,0.3-2.4,1
		c-1.5,0.7-2.1,1.4-2.1,2c0,1.3,1.1,1.8,3.2,1.8c1,0,2.5-0.2,4.8-0.7c2.2-0.5,4.2-0.7,5.7-0.7c11.2,0,16.8,4.5,16.8,13.5
		c0,5-2.2,8.9-6.7,11.8c-4.5,2.8-9.9,4.3-16.3,4.3C387.5,117.7,380.7,115.4,374.6,111z M386.2,66.2c0,2.9,0.8,5.3,2.4,7
		s3.8,2.6,6.5,2.6s4.9-0.9,6.3-2.6c1.5-1.8,2.2-4.1,2.2-7.1c0-2.5-0.8-4.6-2.3-6.3c-1.6-1.8-3.6-2.6-6.1-2.6c-2.6,0-4.8,0.9-6.4,2.5
		C386.9,61.4,386.2,63.5,386.2,66.2z"/>
	<path class="st0" d="M422.5,73.5c0-7.5,2.1-13.6,6.5-18.4s10.1-7.1,17.2-7.1c7.5,0,13.3,2.2,17.5,6.8s6.2,10.8,6.2,18.7
		s-2.1,14.1-6.3,18.8s-10,7-17.3,7c-7.5,0-13.3-2.3-17.5-7C424.6,87.5,422.5,81.3,422.5,73.5z M434.5,73.5
		c0,10.9,3.9,16.4,11.8,16.4c3.6,0,6.4-1.5,8.6-4.3c2.1-2.8,3.1-6.8,3.1-12.1c0-10.7-3.9-16.1-11.7-16.1c-3.6,0-6.4,1.5-8.6,4.3
		C435.5,64.4,434.5,68.3,434.5,73.5z"/>
	<path class="st0" d="M481.2,30.5l11.6-2.7v55.6c0,6.1,1.8,9.7,5.5,10.9c-1.8,3.4-4.9,5.1-9.2,5.1c-5.3,0-7.9-3.6-7.9-10.9V30.5z"/>
	<path class="st0" d="M196.3,170.8v-65h11.5v54.7h29.4v10.2L196.3,170.8L196.3,170.8z"/>
	<path class="st0" d="M288.1,150.4h-33.9c0.2,3.7,1.5,6.7,3.9,8.8s5.6,3.2,9.6,3.2c5,0,8.9-1.3,11.5-3.9l4.3,8.5
		c-3.9,3.2-9.7,4.8-17.5,4.8c-7.2,0-13-2.2-17.2-6.4s-6.4-10.2-6.4-17.8c0-7.5,2.3-13.6,6.9-18.1c4.6-4.7,10.2-6.9,16.6-6.9
		c6.9,0,12.4,2.1,16.5,6.2c4.2,4.1,6.3,9.3,6.3,15.7C289,145.7,288.7,147.7,288.1,150.4z M254.6,142.1h23.3
		c-0.7-6.9-4.6-10.4-11.5-10.4C260,131.7,256.1,135.2,254.6,142.1z"/>
	<path class="st0" d="M324.4,166.1c-1,1.7-2.7,3-5.2,4s-5.1,1.6-7.9,1.6c-5.1,0-9.2-1.3-12.1-3.8s-4.4-6.2-4.4-10.8
		c0-5.5,2.1-9.8,6.2-12.9c4.1-3.1,10-4.7,17.6-4.7c1.3,0,2.8,0.2,4.6,0.7c0-5.6-3.6-8.4-10.6-8.4c-4.2,0-7.7,0.7-10.5,2.1l-2.4-8.6
		c3.8-1.9,8.3-2.7,13.6-2.7c7.2,0,12.5,1.7,15.9,5c3.4,3.3,5,9.5,5,18.7v10.2c0,6.4,1.3,10.3,3.8,12c-0.9,1.6-2,2.6-3.1,3
		s-2.4,0.6-3.8,0.6c-1.6,0-3-0.6-4.3-1.8C325.6,168.7,324.7,167.5,324.4,166.1z M323.2,148.5c-1.9-0.4-3.3-0.6-4.3-0.6
		c-8.8,0-13.1,2.9-13.1,8.6c0,4.3,2.4,6.4,7.4,6.4c6.6,0,10-3.4,10-10V148.5z"/>
	<path class="st0" d="M342.7,183l7-8.6c3.8,3.6,8.2,5.3,12.9,5.3c3.2,0,5.8-0.5,7.9-1.4s3.1-2.2,3.1-3.9c0-2.8-2.2-4.2-6.8-4.2
		c-1.2,0-3.1,0.2-5.5,0.5s-4.3,0.5-5.5,0.5c-7.7,0-11.4-2.7-11.4-8.2c0-1.6,0.7-3.1,1.9-4.6c1.3-1.5,2.7-2.6,4.4-3.4
		c-5.4-3.6-8.1-8.5-8.1-15c0-5,1.9-9.3,5.6-12.6s8.3-5,13.7-5c4.3,0,7.9,0.8,10.7,2.4l4.3-5l7.7,6.9l-5.2,3.8
		c1.9,2.8,2.7,6.1,2.7,9.8c0,5.4-1.7,9.7-5,13s-7.5,4.9-12.4,4.9c-0.8,0-1.9-0.1-3.2-0.2l-1.8-0.3c-0.2,0-1,0.3-2.3,0.9
		c-1.4,0.7-2.1,1.3-2.1,2c0,1.2,1,1.8,3.1,1.8c0.9,0,2.4-0.2,4.6-0.7s4-0.7,5.5-0.7c10.8,0,16.2,4.3,16.2,13c0,4.8-2.2,8.5-6.5,11.3
		c-4.3,2.7-9.5,4.1-15.6,4.1C355.2,189.4,348.6,187.3,342.7,183z M353.8,140c0,2.8,0.7,5,2.3,6.7c1.6,1.7,3.6,2.5,6.3,2.5
		c2.6,0,4.7-0.8,6.1-2.5s2.2-3.9,2.2-6.8c0-2.4-0.7-4.4-2.2-6.1s-3.5-2.5-5.9-2.5c-2.5,0-4.6,0.8-6.2,2.4
		C354.6,135.4,353.8,137.4,353.8,140z"/>
	<path class="st0" d="M422.4,170.8v-4c-1.6,1.3-3.7,2.4-6.5,3.5c-2.7,0.9-5.2,1.4-7.6,1.4c-11,0-16.5-5.9-16.5-17.6v-30.8H403v29.9
		c0,6.1,2.7,9.2,8.2,9.2c2.5,0,4.9-0.7,7-2c2.2-1.3,3.6-2.8,4.3-4.5v-32.6h11.1v47.5L422.4,170.8L422.4,170.8z"/>
	<path class="st0" d="M487.8,150.4H454c0.2,3.7,1.5,6.7,3.9,8.8s5.6,3.2,9.6,3.2c5,0,8.9-1.3,11.5-3.9l4.3,8.5
		c-3.9,3.2-9.7,4.8-17.5,4.8c-7.2,0-13-2.2-17.2-6.4s-6.4-10.2-6.4-17.8c0-7.5,2.3-13.6,6.9-18.1c4.6-4.7,10.2-6.9,16.6-6.9
		c6.9,0,12.4,2.1,16.5,6.2c4.2,4.1,6.3,9.3,6.3,15.7C488.7,145.7,488.5,147.7,487.8,150.4z M454.3,142.1h23.3
		c-0.7-6.9-4.6-10.4-11.5-10.4C459.7,131.7,455.8,135.2,454.3,142.1z"/>
</g>
<g>
	<g>
		<path class="st0" d="M118.7,103.8c0.6,4.7-1,9.3-3.5,13.7c-1.2-2.2-2.2-4.2-3.3-6.1c-1.1-1.8-2.2-3.5-3.4-5.2
			c-1.2-1.7-2.6-3.2-3.8-4.8c2.9,17.5-2.2,29.8-14.3,33c3.2-11.9-1.1-21.8-8.6-30.9c-0.9,8.5-1.8,16.9-2.8,26.1
			c-8.2-12.4-15.3-24.4-17.3-38.7c-0.4,0-0.8,0-1.2,0c-1,5.7-2.1,11.3-3.2,17.5c-8.5-14.2-9.6-28.8-5-44.2c-0.3-0.2-0.6-0.3-0.9-0.5
			c-2.7,3.4-5.4,6.7-8.1,10.1c0.3-15.5,7.8-27.2,20-36.7c-2.5-3.3-4.8-6.4-7.1-9.4c0.7,0.1,1.5,0.2,2.3,0.3c0.2-0.2,0.4-0.4,0.6-0.7
			c-0.9-1.5-1.6-3.2-2.7-4.6c-1.1-1.4-2.6-2.4-4.6-4.2c3.1,0,5.2,0,7.4,0c0.4,3,0.4,6.2,4.1,6.8c4.3,0.7,8.3-0.3,11.8-3
			c2.5-2,2.4-4.1-0.2-6.2c-0.5-0.4-1.1-0.8-1.4-1.1c1.7-3.3,3.3-6.5,4.9-9.7c2.5,2.6,5,5.3,7.5,7.9c-3.4,4.5-2.7,6.9,2.7,8
			c1.8,0.4,3.8,0.5,5.6,0.2c5.9-0.8,7.2-2.6,6.5-8.5c0-0.2,0.1-0.4,0.3-0.8c1.9-0.5,3.8-1.1,6-1.7c-1.3,2.5-2.6,4.5-3.3,6.6
			c-0.5,1.4-0.3,3.1,2.1,2.3c-0.9,2.1-1.8,4.1-2.8,6.3c-9.7,0.1-19.7,0.1-29,4.3c4.8-0.5,9.6-1.4,14.4-1.7c4.9-0.3,9.8-0.1,14.3-0.1
			c0.5,1.1,0.8,2.5,1.3,2.6c5.5,1.1,5.9,6.5,8.8,9.8c-5.7-2.5-11.5-4.1-17.7-2.3c-5.1,1.5-5.4,2.2-2.8,6.7c0.1,0.1,0,0.3,0,0.5
			c-7,4-9,10.1-5.4,15.9c5.3-1.1,10.6-2.2,16.2-3.3c-1.5,2.1-2.6,3.7-3.7,5.4c0.3,0.3,0.6,0.6,0.8,0.9c2.3-0.8,4.7-1.6,7.3-2.5
			c-2.4,2.7-4.5,5.2-6.7,7.6c0.2,0.3,0.5,0.6,0.7,0.9c1.7-0.6,3.4-1.2,5.1-1.8c-0.5,7.1,0,8.3,3.8,9.8c0.4-1.5,0.8-2.9,1.3-4.7
			c4.4,3.6,8.6,6.3,14.2,6c0.2-2.8,0.5-5.4,0.8-8.8c2.2,6.3,4.1,11.9,6.1,17.9c-4.4-0.4-8.9-0.7-14-1.1c2.1,1.7,3.7,2.9,5.3,4.2
			c-0.1,0.2-0.2,0.4-0.3,0.6c-3.2-0.6-6.3-1.2-8.7-1.7C116.3,94.8,118.2,99.2,118.7,103.8z M71.5,55.7c-3,14.3-4.9,28.1,1.4,41.6
			c0.1-9.8,1-19.4,4.7-28.7c0.3,2.9,0.5,5.8,1,8.7c1.1,6.7,3.9,12.6,8.5,17.8c3,3.4,5.8,7,9.3,11.2c-0.4-2.4-0.3-4.4-1-6.2
			c-1-2.5-2.5-4.9-4-7.3c-2.4-4-3.8-8.2-2.7-13.2c2.5,9.5,12.4,8.6,18.6,13.2c-0.5-0.8-0.9-1.8-1.5-2.5c-2-2.3-4-4.7-6.2-6.8
			c-3.7-3.5-5.8-7.5-5.3-12.7c0-0.6-0.1-1.1-0.2-2.7c-3.6,2.1-6.8,4-10,5.9c-3.1-5.9-3.9-12.6-4.4-20c-1,1.4-1.9,2.9-2.9,4.3
			c-0.3-0.3-0.6-0.5-0.8-0.8c1-6.2,4.3-11,9.9-14.3c-0.1-0.3-0.1-0.6-0.2-0.8c-3.1-0.2-6.3-0.5-9.4-0.7c-0.1-0.1-0.2-0.3-0.3-0.4
			c4.3-1.7,8.6-3.4,12.9-5c-6.8-3.9-25.9,5.1-31.8,15.3c2.9-0.5,5.7-1,8.7-1.5c-6.3,10.4-9.2,19.6-8.6,27.6
			C60,69.5,62.9,61.1,71.5,55.7z M80.5,17.7c0.9-2.6,0.9-4.9-1.1-7C77.4,13.4,77.8,15.8,80.5,17.7z"/>
		<path class="st0" d="M127.2,52.4c-1.8,0.5-3.3,0.9-4.7,1.2c-1.5,0.3-3.1,0.4-5.1,1.3c1,0.7,1.9,1.5,3,2c3.2,1.5,3.7,3,1.3,5.6
			c-2.6,2.7-5.5,5.1-8.1,7.9c3.6-1.1,6.5-3.4,9.4-5.7c0.8-0.7,2-1.1,2.3-1.2C125.8,59.9,126.4,56.5,127.2,52.4z"/>
		<path class="st0" d="M112.3,47.7c-1.6-1.6-3.1-3.7-5.2-4.9c-2.6-1.6-5.5-0.9-8.2,0.4C101.6,46.3,101.6,46.3,112.3,47.7z"/>
	</g>
	<path class="st0" d="M158.7,116.1c-4.2,2.6-8.2,5.5-12.6,7.7c-10.8,5.7-22.4,9.6-34.1,13.1c-11,3.3-17.3,10.8-21.1,21.1
		c-0.3,0.9-0.3,2,0,2.9c0.9,3.6,2.1,7.1,3,10.7c1.6,6.5,3.1,13,1.9,19.8c-0.7,4.1-4.1,7.2-7.9,7.2s-7.4-3.1-7.8-7.2
		c-0.3-3.9-0.4-8,0.3-11.9c1.1-6.1,3-12.1,4.5-18.2c0.2-0.9,0.5-2.1,0.2-2.9c-3.6-9.9-9.3-17.8-20-21.1c-6-1.8-11.9-3.9-17.7-6.1
		c-10.8-4-21.4-8.3-30.6-15.5c-0.3-0.3-0.8-0.3-1.6-0.6c1.2,7.2,3.2,13.7,6.8,19.7c3.1,5.1,7.5,8.5,13.3,9.9c4.3,1,8.7,1.8,13,2.7
		c4.5,1,9.1,1.8,13.6,2.9c2.6,0.7,4.5,2.4,5.4,4.9c-3.9-1-7.8-2.2-11.8-2.9c-5.8-1-11.6-1.7-17.4-2.4c-1.1-0.1-2.2-0.1-3.3-0.2
		c0.2,1.2,0.4,2.4,0.5,3.6c0,0.1,0.1,0.3,0.2,0.4c3.4,7.7,9.6,11.1,17.7,11.6c4.1,0.3,8.2,0.5,12.4,0.9c4.1,0.4,6.7,2.1,7.7,4.7
		c-7.4-2.3-15-1.9-23.1-2.1c0.6,1,1,1.6,1.5,2.2c3.2,3.8,7.4,5.8,12.1,6.9c2.1,0.5,4.3,0.8,6.3,1.5c2.1,0.7,3.8,2,4.3,4.7
		c-4-0.6-7.8-1-11.5-1.9c-7.7-1.8-14-5.5-17.8-12.8c-0.4-0.8-1.4-1.4-2.3-1.9c-7.4-4-11.8-10.1-13.3-18.4c-0.2-0.9-1-1.8-1.7-2.5
		c-2.3-2.1-5-3.8-7-6.1c-3.7-4.2-5.9-9.3-7.5-14.6c-1.9-6.1-3.2-12.2-3.2-18.6c0-0.8,0.8-2,1.4-2.3c0.7-0.2,2.1,0.3,2.5,0.9
		c3.7,5.3,8.8,8.8,14.3,11.8c11.9,6.5,24.6,10.8,37.4,14.8c9.6,3,16.5,8.9,20.9,17.8c0.4,0.7,0.8,1.4,1.4,2.3
		c0.4-0.6,0.7-0.9,0.8-1.2c4.8-10.4,12.9-16.5,23.8-19.8c12.2-3.6,24.1-8,35.3-14.1c5.3-2.9,10.2-6.2,13.8-11.2
		c0.6-0.8,1.8-1.6,2.7-1.6c1.6,0.1,1.7,1.6,1.7,3c-0.4,7.5-1.9,14.8-4.6,21.8c-2.7,7.1-6.7,13.2-13.5,17c-0.7,0.4-1.2,1.4-1.4,2.3
		c-1.5,8.3-6,14.5-13.5,18.5c-0.9,0.5-1.8,1.3-2.3,2.1c-2.5,4.7-6.3,7.9-11,10.2c-5.7,2.7-11.8,3.1-18.1,3.8
		c0.6-1.2,1.1-2.5,2.1-3.1c2-1,4.1-1.8,6.3-2.3c4.5-0.9,8.7-2.2,12.2-5.3c1.3-1.1,2.4-2.6,3.5-3.9c-0.1-0.3-0.3-0.6-0.4-0.9
		c-7.6,0.6-15.1,1.2-22.5,1.8c1.1-1.9,3.1-3.2,5.5-3.5c4.7-0.6,9.4-1.1,14-1.3c5.3-0.3,10-1.8,13.9-5.4c2.6-2.4,4.2-5.3,5-8.8
		c0.2-1.1,0.2-1.9-1.3-1.7c-6.2,0.9-12.5,1.6-18.7,2.7c-4.2,0.8-8.4,2-13,3.2c1.2-1.3,2-2.8,3.2-3.5c2-1.2,4.2-2.1,6.4-2.6
		c5.7-1.2,11.6-2,17.3-3.2c5.6-1.1,11.1-2.4,15.3-6.8c6.3-6.7,8.6-15.1,10.4-24.4C159.7,115.6,159.2,115.8,158.7,116.1z M84.1,189.7
		c0.3,2.6,1.9,4.3,3.8,4.4c1.9,0,3.4-1.6,3.8-4.3c0-0.1,0-0.3,0.1-0.4c0.6-7.3-1.5-14.1-3.8-21C85.5,175.3,83.4,182.3,84.1,189.7z"
		/>
</g>
</svg>
