<?xml version="1.0" encoding="utf-8"?>
<!-- Generator: Adobe Illustrator 23.0.0, SVG Export Plug-In . SVG Version: 6.00 Build 0)  -->
<svg version="1.1" id="Layer_1" xmlns="http://www.w3.org/2000/svg" xmlns:xlink="http://www.w3.org/1999/xlink" x="0px" y="0px"
	 viewBox="0 0 30 30" style="enable-background:new 0 0 30 30;" xml:space="preserve">
<style type="text/css">
	.st0{fill:#1D1344;}
</style>
<path class="st0" d="M20,27H1.1C0.5,27,0,26.5,0,25.9v-2.2c0-0.6,0.5-1.1,1.1-1.1H20c0.6,0,1.1,0.5,1.1,1.1v2.2
	C21.1,26.5,20.6,27,20,27z"/>
<path class="st0" d="M28.9,17.2H1.1c-0.6,0-1.1-0.5-1.1-1.1V14c0-0.6,0.5-1.1,1.1-1.1h27.8c0.6,0,1.1,0.5,1.1,1.1v2.2
	C30,16.8,29.5,17.2,28.9,17.2z"/>
<path class="st0" d="M28.9,7.4H1.1C0.5,7.4,0,6.9,0,6.3V4.1C0,3.5,0.5,3,1.1,3h27.8C29.5,3,30,3.5,30,4.1v2.2
	C30,6.9,29.5,7.4,28.9,7.4z"/>
</svg>
