<?xml version="1.0" encoding="utf-8"?>
<!-- Generator: Adobe Illustrator 23.0.0, SVG Export Plug-In . SVG Version: 6.00 Build 0)  -->
<svg version="1.1" id="Layer_1" xmlns="http://www.w3.org/2000/svg" xmlns:xlink="http://www.w3.org/1999/xlink" x="0px" y="0px"
	 viewBox="0 0 37.4 37.4" style="enable-background:new 0 0 37.4 37.4;" xml:space="preserve">
<style type="text/css">
	.st0{fill:none;}
	.st1{fill:#FFFFFF;}
</style>
<title>App</title>
<g id="Favourite_" transform="translate(-1319.997 -1982.498)">
	<path class="st0" d="M1353.9,2005.4c0,0-3.6,3.5-7.7,7c-2.9,2.4-6.2,5-7.6,5c-3,0-15.2-12-15.2-12c-4.2-4.9-4.2-12.1,0-16.9
		c3.6-4.2,9.9-4.7,14.1-1.1c0.4,0.3,0.8,0.7,1.1,1.1c3.6-4.2,9.9-4.7,14.1-1.1c0.4,0.3,0.8,0.7,1.1,1.1
		C1358.1,1993.4,1358.1,2000.6,1353.9,2005.4z"/>
	<path class="st1" d="M1338.6,2014.2c0.8-0.4,2.6-1.6,5.6-4.2c3.7-3.1,6.9-6.2,7.5-6.8c1.5-1.7,2.3-3.9,2.3-6.3
		c0-2.4-0.8-4.7-2.4-6.4c-1.4-1.6-3.3-2.5-5.3-2.5c-2,0-3.9,0.9-5.3,2.5c-0.6,0.6-1.4,1-2.3,1c-0.9,0-1.7-0.4-2.3-1
		c-1.4-1.6-3.3-2.5-5.3-2.5s-3.9,0.9-5.3,2.5c-1.5,1.7-2.4,4-2.4,6.4c0,2.4,0.8,4.7,2.3,6.3c0.4,0.4,2.9,2.8,5.7,5.4
		C1335.9,2012.6,1337.9,2013.8,1338.6,2014.2 M1338.6,2017.4c-3,0-15.1-12-15.1-12c-4.2-4.7-4.2-12.2,0-16.9
		c2.1-2.3,4.9-3.5,7.6-3.5s5.5,1.2,7.6,3.5c2.1-2.3,4.9-3.5,7.6-3.5s5.5,1.2,7.6,3.5c4.2,4.7,4.2,12.2,0,16.9c0,0-3.6,3.5-7.7,7
		C1343.4,2014.8,1340,2017.4,1338.6,2017.4C1338.6,2017.4,1338.6,2017.4,1338.6,2017.4z"/>
</g>
</svg>
