<?xml version="1.0" encoding="utf-8"?>
<!-- Generator: Adobe Illustrator 23.0.0, SVG Export Plug-In . SVG Version: 6.00 Build 0)  -->
<svg version="1.1" id="Layer_1" xmlns="http://www.w3.org/2000/svg" xmlns:xlink="http://www.w3.org/1999/xlink" x="0px" y="0px"
	 viewBox="0 0 37.4 37.4" style="enable-background:new 0 0 37.4 37.4;" xml:space="preserve">
<style type="text/css">
	.st0{fill-rule:evenodd;clip-rule:evenodd;fill:#FFFFFF;}
</style>
<title>App</title>
<path id="Path_582" class="st0" d="M28.7,18.7c0-0.9-0.4-1.7-1-2.4L12.5,1.5c-0.9-0.9-2.3-0.9-3.2,0c-0.9,0.9-0.9,2.3,0,3.1
	c0,0,0,0,0,0l14.4,14l-14.4,14c-0.9,0.8-0.9,2.2,0,3.1c0,0,0,0,0,0c0.9,0.9,2.3,0.9,3.2,0l15.2-14.8C28.3,20.4,28.7,19.6,28.7,18.7
	L28.7,18.7z"/>
</svg>
